<svg width="34" height="34" viewBox="0 0 34 34" fill="none" xmlns="http://www.w3.org/2000/svg">
<path d="M17.267 0.763672C8.27286 0.763672 0.914062 8.12247 0.914062 17.1166C0.914062 26.1107 8.27286 33.4695 17.267 33.4695C26.261 33.4695 33.6198 26.1107 33.6198 17.1166C33.6198 8.12247 26.261 0.763672 17.267 0.763672ZM17.267 30.1989C10.0553 30.1989 4.18464 24.3282 4.18464 17.1166C4.18464 9.90494 10.0553 4.03425 17.267 4.03425C24.4786 4.03425 30.3493 9.90494 30.3493 17.1166C30.3493 24.3282 24.4786 30.1989 17.267 30.1989ZM18.0846 8.94012H15.6317V18.7519L24.1352 23.9848L25.4434 21.8589L18.0846 17.4436V8.94012Z" fill="#828282"/>
</svg>
