<svg width="24" height="17" viewBox="0 0 24 17" fill="none" xmlns="http://www.w3.org/2000/svg">
<path opacity="0.6" d="M12 3C15.79 3 19.17 5.13 20.82 8.5C19.17 11.87 15.8 14 12 14C8.2 14 4.83 11.87 3.18 8.5C4.83 5.13 8.21 3 12 3ZM12 1C7 1 2.73 4.11 1 8.5C2.73 12.89 7 16 12 16C17 16 21.27 12.89 23 8.5C21.27 4.11 17 1 12 1ZM12 6C13.38 6 14.5 7.12 14.5 8.5C14.5 9.88 13.38 11 12 11C10.62 11 9.5 9.88 9.5 8.5C9.5 7.12 10.62 6 12 6ZM12 4C9.52 4 7.5 6.02 7.5 8.5C7.5 10.98 9.52 13 12 13C14.48 13 16.5 10.98 16.5 8.5C16.5 6.02 14.48 4 12 4Z" fill="black" stroke="#FAFBFD" stroke-width="0.5"/>
</svg>
