<svg width="24" height="33" viewBox="0 0 24 33" fill="none" xmlns="http://www.w3.org/2000/svg">
<path d="M12.3611 0.269531C6.03252 0.269531 0.914062 5.38799 0.914062 11.7166C0.914062 20.3018 12.3611 32.9753 12.3611 32.9753C12.3611 32.9753 23.8081 20.3018 23.8081 11.7166C23.8081 5.38799 18.6897 0.269531 12.3611 0.269531ZM4.18464 11.7166C4.18464 7.20316 7.84769 3.54011 12.3611 3.54011C16.8745 3.54011 20.5375 7.20316 20.5375 11.7166C20.5375 16.4262 15.8279 23.4743 12.3611 27.8732C8.95969 23.507 4.18464 16.3771 4.18464 11.7166Z" fill="#828282"/>
<path d="M12.3611 15.8048C14.6189 15.8048 16.4493 13.9744 16.4493 11.7166C16.4493 9.45869 14.6189 7.62833 12.3611 7.62833C10.1032 7.62833 8.27286 9.45869 8.27286 11.7166C8.27286 13.9744 10.1032 15.8048 12.3611 15.8048Z" fill="#828282"/>
</svg>
