<svg width="147" height="27" viewBox="0 0 147 27" fill="none" xmlns="http://www.w3.org/2000/svg">
<path d="M4.199 17.143C3.72233 17.143 3.25867 17.0997 2.808 17.013C2.366 16.935 1.95433 16.8223 1.573 16.675C1.19167 16.519 0.858 16.337 0.572 16.129L1.157 14.543C1.43433 14.7337 1.73333 14.8983 2.054 15.037C2.37467 15.1757 2.717 15.284 3.081 15.362C3.445 15.4313 3.81767 15.466 4.199 15.466C4.83167 15.466 5.28233 15.3707 5.551 15.18C5.81967 14.9807 5.954 14.7337 5.954 14.439C5.954 14.2743 5.91067 14.1313 5.824 14.01C5.746 13.8887 5.61167 13.7847 5.421 13.698C5.239 13.6027 4.98767 13.5247 4.667 13.464L3.198 13.152C2.366 12.9787 1.74633 12.684 1.339 12.268C0.940333 11.8433 0.741 11.2887 0.741 10.604C0.741 10.0147 0.897 9.50333 1.209 9.07C1.52967 8.63667 1.96733 8.29867 2.522 8.056C3.08533 7.81333 3.731 7.692 4.459 7.692C4.88367 7.692 5.291 7.73533 5.681 7.822C6.071 7.9 6.43067 8.017 6.76 8.173C7.08933 8.329 7.37533 8.51533 7.618 8.732L7.033 10.214C6.68633 9.93667 6.29633 9.72867 5.863 9.59C5.42967 9.44267 4.95733 9.369 4.446 9.369C4.082 9.369 3.77 9.41667 3.51 9.512C3.25867 9.60733 3.06367 9.74167 2.925 9.915C2.795 10.0883 2.73 10.2877 2.73 10.513C2.73 10.7643 2.821 10.968 3.003 11.124C3.185 11.28 3.50133 11.4057 3.952 11.501L5.421 11.813C6.27033 11.995 6.903 12.2897 7.319 12.697C7.735 13.0957 7.943 13.6243 7.943 14.283C7.943 14.855 7.787 15.3577 7.475 15.791C7.17167 16.2157 6.73833 16.5493 6.175 16.792C5.62033 17.026 4.96167 17.143 4.199 17.143ZM13.1771 17.143C11.8771 17.143 10.8848 16.8093 10.2001 16.142C9.52413 15.4747 9.18612 14.4823 9.18612 13.165V7.835H11.2011V13.178C11.2011 13.9233 11.3701 14.4867 11.7081 14.868C12.0461 15.2407 12.5358 15.427 13.1771 15.427C13.8185 15.427 14.3038 15.2407 14.6331 14.868C14.9711 14.4867 15.1401 13.9233 15.1401 13.178V7.835H17.1291V13.165C17.1291 14.4823 16.7955 15.4747 16.1281 16.142C15.4608 16.8093 14.4771 17.143 13.1771 17.143ZM18.9123 17V7.835H23.0983C23.7829 7.835 24.3636 7.952 24.8403 8.186C25.3169 8.42 25.6766 8.75367 25.9193 9.187C26.1706 9.62033 26.2963 10.1447 26.2963 10.76C26.2963 11.3753 26.1706 11.904 25.9193 12.346C25.6766 12.7793 25.3169 13.113 24.8403 13.347C24.3636 13.581 23.7829 13.698 23.0983 13.698H20.9273V17H18.9123ZM20.9273 12.138H22.7603C23.2803 12.138 23.6746 12.021 23.9433 11.787C24.2206 11.553 24.3593 11.2107 24.3593 10.76C24.3593 10.3093 24.2206 9.97133 23.9433 9.746C23.6746 9.52067 23.2803 9.408 22.7603 9.408H20.9273V12.138ZM27.5451 17V7.835H33.8241V9.408H29.4691V11.553H33.5381V13.139H29.4691V15.427H33.8241V17H27.5451ZM35.4162 17V7.835H39.6022C40.6248 7.835 41.4135 8.082 41.9682 8.576C42.5228 9.07 42.8002 9.759 42.8002 10.643C42.8002 11.215 42.6745 11.709 42.4232 12.125C42.1718 12.541 41.8078 12.8617 41.3312 13.087C40.8632 13.3123 40.2868 13.425 39.6022 13.425L39.7062 13.204H40.2392C40.6032 13.204 40.9195 13.295 41.1882 13.477C41.4655 13.6503 41.7038 13.919 41.9032 14.283L43.3852 17H41.1622L39.5762 14.075C39.4895 13.919 39.3898 13.7977 39.2772 13.711C39.1645 13.6157 39.0345 13.5507 38.8872 13.516C38.7485 13.4727 38.5925 13.451 38.4192 13.451H37.4312V17H35.4162ZM37.4312 11.995H39.2382C39.7755 11.995 40.1785 11.8867 40.4472 11.67C40.7245 11.4533 40.8632 11.1283 40.8632 10.695C40.8632 10.2703 40.7245 9.94967 40.4472 9.733C40.1785 9.51633 39.7755 9.408 39.2382 9.408H37.4312V11.995ZM47.7058 17.143C47.2292 17.143 46.7655 17.0997 46.3148 17.013C45.8728 16.935 45.4612 16.8223 45.0798 16.675C44.6985 16.519 44.3648 16.337 44.0788 16.129L44.6638 14.543C44.9412 14.7337 45.2402 14.8983 45.5608 15.037C45.8815 15.1757 46.2238 15.284 46.5878 15.362C46.9518 15.4313 47.3245 15.466 47.7058 15.466C48.3385 15.466 48.7892 15.3707 49.0578 15.18C49.3265 14.9807 49.4608 14.7337 49.4608 14.439C49.4608 14.2743 49.4175 14.1313 49.3308 14.01C49.2528 13.8887 49.1185 13.7847 48.9278 13.698C48.7458 13.6027 48.4945 13.5247 48.1738 13.464L46.7048 13.152C45.8728 12.9787 45.2532 12.684 44.8458 12.268C44.4472 11.8433 44.2478 11.2887 44.2478 10.604C44.2478 10.0147 44.4038 9.50333 44.7158 9.07C45.0365 8.63667 45.4742 8.29867 46.0288 8.056C46.5922 7.81333 47.2378 7.692 47.9658 7.692C48.3905 7.692 48.7978 7.73533 49.1878 7.822C49.5778 7.9 49.9375 8.017 50.2668 8.173C50.5962 8.329 50.8822 8.51533 51.1248 8.732L50.5398 10.214C50.1932 9.93667 49.8032 9.72867 49.3698 9.59C48.9365 9.44267 48.4642 9.369 47.9528 9.369C47.5888 9.369 47.2768 9.41667 47.0168 9.512C46.7655 9.60733 46.5705 9.74167 46.4318 9.915C46.3018 10.0883 46.2368 10.2877 46.2368 10.513C46.2368 10.7643 46.3278 10.968 46.5098 11.124C46.6918 11.28 47.0082 11.4057 47.4588 11.501L48.9278 11.813C49.7772 11.995 50.4098 12.2897 50.8258 12.697C51.2418 13.0957 51.4498 13.6243 51.4498 14.283C51.4498 14.855 51.2938 15.3577 50.9818 15.791C50.6785 16.2157 50.2452 16.5493 49.6818 16.792C49.1272 17.026 48.4685 17.143 47.7058 17.143ZM52.758 17V7.835H59.037V9.408H54.682V11.553H58.751V13.139H54.682V15.427H59.037V17H52.758ZM63.6061 17L59.4851 7.835H61.6431L64.8021 15.154H64.1521L67.3111 7.835H69.3781L65.2571 17H63.6061ZM70.0744 17V7.835H76.3534V9.408H71.9984V11.553H76.0674V13.139H71.9984V15.427H76.3534V17H70.0744ZM77.9455 17V7.835H79.4405L84.3675 14.114H84.0165V7.835H85.8885V17H84.4065L79.4795 10.708H79.8175V17H77.9455Z" fill="#2BB673"/>
<path d="M91.0095 17.143C90.5329 17.143 90.0692 17.0997 89.6185 17.013C89.1765 16.935 88.7649 16.8223 88.3835 16.675C88.0022 16.519 87.6685 16.337 87.3825 16.129L87.9675 14.543C88.2449 14.7337 88.5439 14.8983 88.8645 15.037C89.1852 15.1757 89.5275 15.284 89.8915 15.362C90.2555 15.4313 90.6282 15.466 91.0095 15.466C91.6422 15.466 92.0929 15.3707 92.3615 15.18C92.6302 14.9807 92.7645 14.7337 92.7645 14.439C92.7645 14.2743 92.7212 14.1313 92.6345 14.01C92.5565 13.8887 92.4222 13.7847 92.2315 13.698C92.0495 13.6027 91.7982 13.5247 91.4775 13.464L90.0085 13.152C89.1765 12.9787 88.5569 12.684 88.1495 12.268C87.7509 11.8433 87.5515 11.2887 87.5515 10.604C87.5515 10.0147 87.7075 9.50333 88.0195 9.07C88.3402 8.63667 88.7779 8.29867 89.3325 8.056C89.8959 7.81333 90.5415 7.692 91.2695 7.692C91.6942 7.692 92.1015 7.73533 92.4915 7.822C92.8815 7.9 93.2412 8.017 93.5705 8.173C93.8999 8.329 94.1859 8.51533 94.4285 8.732L93.8435 10.214C93.4969 9.93667 93.1069 9.72867 92.6735 9.59C92.2402 9.44267 91.7679 9.369 91.2565 9.369C90.8925 9.369 90.5805 9.41667 90.3205 9.512C90.0692 9.60733 89.8742 9.74167 89.7355 9.915C89.6055 10.0883 89.5405 10.2877 89.5405 10.513C89.5405 10.7643 89.6315 10.968 89.8135 11.124C89.9955 11.28 90.3119 11.4057 90.7625 11.501L92.2315 11.813C93.0809 11.995 93.7135 12.2897 94.1295 12.697C94.5455 13.0957 94.7535 13.6243 94.7535 14.283C94.7535 14.855 94.5975 15.3577 94.2855 15.791C93.9822 16.2157 93.5489 16.5493 92.9855 16.792C92.4309 17.026 91.7722 17.143 91.0095 17.143ZM98.0552 17V9.499H95.0262V7.835H103.099V9.499H100.07V17H98.0552ZM108.011 17.143C106.711 17.143 105.719 16.8093 105.034 16.142C104.358 15.4747 104.02 14.4823 104.02 13.165V7.835H106.035V13.178C106.035 13.9233 106.204 14.4867 106.542 14.868C106.88 15.2407 107.37 15.427 108.011 15.427C108.652 15.427 109.138 15.2407 109.467 14.868C109.805 14.4867 109.974 13.9233 109.974 13.178V7.835H111.963V13.165C111.963 14.4823 111.629 15.4747 110.962 16.142C110.295 16.8093 109.311 17.143 108.011 17.143ZM113.746 17V7.835H117.334C118.374 7.835 119.258 8.017 119.986 8.381C120.723 8.73633 121.282 9.25633 121.663 9.941C122.053 10.617 122.248 11.4403 122.248 12.411C122.248 13.3817 122.053 14.2093 121.663 14.894C121.282 15.5787 120.723 16.103 119.986 16.467C119.258 16.8223 118.374 17 117.334 17H113.746ZM115.761 15.349H117.217C118.197 15.349 118.929 15.1063 119.414 14.621C119.9 14.1357 120.142 13.399 120.142 12.411C120.142 11.423 119.895 10.6907 119.401 10.214C118.916 9.72867 118.188 9.486 117.217 9.486H115.761V15.349ZM123.814 17V7.835H125.829V17H123.814ZM131.911 17.143C131.235 17.143 130.616 17.0303 130.052 16.805C129.498 16.5797 129.021 16.259 128.622 15.843C128.224 15.427 127.916 14.9287 127.699 14.348C127.491 13.7673 127.387 13.1217 127.387 12.411C127.387 11.6917 127.491 11.046 127.699 10.474C127.916 9.89333 128.224 9.39933 128.622 8.992C129.021 8.576 129.498 8.25533 130.052 8.03C130.616 7.80467 131.235 7.692 131.911 7.692C132.596 7.692 133.216 7.80467 133.77 8.03C134.325 8.25533 134.802 8.57167 135.2 8.979C135.599 9.38633 135.907 9.88033 136.123 10.461C136.34 11.0417 136.448 11.6873 136.448 12.398C136.448 13.1173 136.34 13.7673 136.123 14.348C135.907 14.9287 135.599 15.427 135.2 15.843C134.802 16.259 134.325 16.5797 133.77 16.805C133.216 17.0303 132.596 17.143 131.911 17.143ZM131.911 15.427C132.431 15.427 132.869 15.31 133.224 15.076C133.58 14.8333 133.853 14.4867 134.043 14.036C134.243 13.5767 134.342 13.035 134.342 12.411C134.342 11.7783 134.247 11.2367 134.056 10.786C133.866 10.3353 133.588 9.993 133.224 9.759C132.86 9.525 132.423 9.408 131.911 9.408C131.409 9.408 130.975 9.525 130.611 9.759C130.247 9.993 129.97 10.3353 129.779 10.786C129.589 11.2367 129.493 11.7783 129.493 12.411C129.493 13.035 129.589 13.5767 129.779 14.036C129.97 14.4867 130.247 14.8333 130.611 15.076C130.975 15.31 131.409 15.427 131.911 15.427Z" fill="#B6B6B6"/>
</svg>
