<svg width="38" height="37" viewBox="0 0 38 37" fill="none" xmlns="http://www.w3.org/2000/svg">
<path d="M34.1823 7.59607H30.0424C30.2513 7.00737 30.3843 6.3617 30.3843 5.69705C30.3843 2.54468 27.8396 0 24.6872 0C22.6932 0 20.9651 1.02547 19.9397 2.56367L18.9902 3.83601L18.0407 2.54468C17.0152 1.02547 15.2871 0 13.2931 0C10.1407 0 7.59606 2.54468 7.59606 5.69705C7.59606 6.3617 7.729 7.00737 7.93789 7.59607H3.79803C1.69012 7.59607 0.0189901 9.28619 0.0189901 11.3941L0 32.2833C0 34.3912 1.69012 36.0813 3.79803 36.0813H34.1823C36.2902 36.0813 37.9803 34.3912 37.9803 32.2833V11.3941C37.9803 9.28619 36.2902 7.59607 34.1823 7.59607ZM24.6872 3.79803C25.7317 3.79803 26.5862 4.65259 26.5862 5.69705C26.5862 6.74151 25.7317 7.59607 24.6872 7.59607C23.6428 7.59607 22.7882 6.74151 22.7882 5.69705C22.7882 4.65259 23.6428 3.79803 24.6872 3.79803ZM13.2931 3.79803C14.3376 3.79803 15.1921 4.65259 15.1921 5.69705C15.1921 6.74151 14.3376 7.59607 13.2931 7.59607C12.2487 7.59607 11.3941 6.74151 11.3941 5.69705C11.3941 4.65259 12.2487 3.79803 13.2931 3.79803ZM34.1823 32.2833H3.79803V28.4852H34.1823V32.2833ZM34.1823 22.7882H3.79803V11.3941H13.445L9.49508 16.7683L12.5715 18.9902L18.9902 10.2547L25.4088 18.9902L28.4852 16.7683L24.5353 11.3941H34.1823V22.7882Z" fill="#202224"/>
</svg>
