<svg width="34" height="32" viewBox="0 0 34 32" fill="none" xmlns="http://www.w3.org/2000/svg">
<path d="M30.3493 6.79897H26.7843C26.9642 6.29203 27.0787 5.73603 27.0787 5.16368C27.0787 2.4491 24.8874 0.257812 22.1728 0.257812C20.4558 0.257812 18.9677 1.14087 18.0846 2.46545L17.267 3.5611L16.4493 2.4491C15.5663 1.14087 14.0781 0.257812 12.3611 0.257812C9.64651 0.257812 7.45522 2.4491 7.45522 5.16368C7.45522 5.73603 7.56969 6.29203 7.74957 6.79897H4.18464C2.36947 6.79897 0.930415 8.25438 0.930415 10.0695L0.914062 28.0577C0.914062 29.8729 2.36947 31.3283 4.18464 31.3283H30.3493C32.1644 31.3283 33.6198 29.8729 33.6198 28.0577V10.0695C33.6198 8.25438 32.1644 6.79897 30.3493 6.79897ZM22.1728 3.52839C23.0722 3.52839 23.8081 4.26427 23.8081 5.16368C23.8081 6.06309 23.0722 6.79897 22.1728 6.79897C21.2734 6.79897 20.5375 6.06309 20.5375 5.16368C20.5375 4.26427 21.2734 3.52839 22.1728 3.52839ZM12.3611 3.52839C13.2605 3.52839 13.9964 4.26427 13.9964 5.16368C13.9964 6.06309 13.2605 6.79897 12.3611 6.79897C11.4617 6.79897 10.7258 6.06309 10.7258 5.16368C10.7258 4.26427 11.4617 3.52839 12.3611 3.52839ZM30.3493 28.0577H4.18464V24.7872H30.3493V28.0577ZM30.3493 19.8813H4.18464V10.0695H12.4919L9.09051 14.6974L11.7397 16.6107L17.267 9.08837L22.7942 16.6107L25.4434 14.6974L22.042 10.0695H30.3493V19.8813Z" fill="#828282"/>
</svg>
