<?xml version="1.0" standalone="no"?>
<!DOCTYPE svg PUBLIC "-//W3C//DTD SVG 20010904//EN"
 "http://www.w3.org/TR/2001/REC-SVG-20010904/DTD/svg10.dtd">
<svg version="1.0" xmlns="http://www.w3.org/2000/svg"
 width="128.000000pt" height="128.000000pt" viewBox="0 0 128.000000 128.000000"
 preserveAspectRatio="xMidYMid meet">

<g transform="translate(0.000000,128.000000) scale(0.100000,-0.100000)"
fill="#000000" stroke="none">
<path d="M270 1146 c-108 -23 -171 -84 -190 -185 -5 -29 -10 -176 -10 -325 0
-213 3 -285 15 -331 28 -107 85 -155 206 -175 83 -13 615 -13 698 0 121 20
178 68 206 175 22 86 22 584 0 670 -28 105 -82 152 -200 174 -81 15 -653 13
-725 -3z m490 -507 l0 -441 -237 4 c-216 3 -242 5 -284 24 -33 16 -51 32 -65
60 -18 36 -19 63 -19 354 0 288 2 318 19 353 36 73 87 84 374 86 l212 1 0
-441z m284 413 c30 -14 48 -30 62 -58 18 -36 19 -63 19 -354 0 -291 -1 -318
-19 -354 -25 -50 -79 -75 -186 -83 l-80 -6 0 443 0 443 80 -6 c45 -4 100 -15
124 -25z"/>
<path d="M266 771 c-14 -16 -15 -24 -6 -40 11 -21 17 -21 198 -19 l187 3 3 24
c7 45 -17 51 -198 51 -152 0 -168 -2 -184 -19z"/>
<path d="M317 563 c-14 -13 -6 -53 12 -63 25 -13 227 -13 252 0 21 12 25 40 7
58 -13 13 -259 18 -271 5z"/>
</g>
</svg>
